# ProBuilder 5.0.6
# https://unity3d.com/unity/features/worldbuilding/probuilder
# 2023/07/13 14:45:13

mtllib ./Circle270.mtl
o Circle270

g Circle270
v -0.5 0 0
v 0 0 0
v -0.4957224 0 0.0652631
v -0.4829629 0 0.1294095
v -0.4619398 0 0.1913417
v -0.4330127 0 0.25
v -0.3966767 0 0.3043807
v -0.3535534 0 0.3535534
v -0.3043807 0 0.3966767
v -0.25 0 0.4330127
v -0.1913417 0 0.4619398
v -0.1294095 0 0.4829629
v -0.06526312 0 0.4957224
v 2.185569E-08 0 0.5
v 0.06526311 0 0.4957224
v 0.1294095 0 0.4829629
v 0.1913417 0 0.4619398
v 0.25 0 0.4330127
v 0.3043807 0 0.3966767
v 0.3535534 0 0.3535534
v 0.3966767 0 0.3043807
v 0.4330127 0 0.25
v 0.4619398 0 0.1913417
v 0.4829629 0 0.1294096
v 0.4957224 0 0.06526316
v 0.5 0 -4.371139E-08
v 0.4957224 0 -0.06526313
v 0.4829629 0 -0.1294095
v 0.4619398 0 -0.1913417
v 0.4330127 0 -0.25
v 0.3966767 0 -0.3043807
v 0.3535534 0 -0.3535534
v -0.3535533 0 -0.3535534
v -0.3966767 0 -0.3043807
v -0.4330127 0 -0.2500001
v -0.4619398 0 -0.1913417
v -0.4829629 0 -0.1294096
v -0.4957224 0 -0.06526311

vt 1 0.5
vt 0.5 0.5
vt 0.9957224 0.5652631
vt 0.9829629 0.6294096
vt 0.9619398 0.6913418
vt 0.9330127 0.75
vt 0.8966767 0.8043807
vt 0.8535534 0.8535534
vt 0.8043807 0.8966767
vt 0.75 0.9330127
vt 0.6913417 0.9619398
vt 0.6294096 0.9829629
vt 0.5652632 0.9957224
vt 0.5 1
vt 0.4347369 0.9957224
vt 0.3705905 0.9829629
vt 0.3086583 0.9619398
vt 0.25 0.9330127
vt 0.1956193 0.8966767
vt 0.1464466 0.8535534
vt 0.1033233 0.8043807
vt 0.06698731 0.75
vt 0.03806025 0.6913418
vt 0.01703709 0.6294096
vt 0.004277587 0.5652632
vt 0 0.5
vt 0.004277587 0.4347369
vt 0.01703709 0.3705904
vt 0.03806025 0.3086583
vt 0.06698731 0.25
vt 0.1033233 0.1956193
vt 0.1464466 0.1464466
vt 0.8535533 0.1464466
vt 0.8966767 0.1956193
vt 0.9330127 0.2499999
vt 0.9619398 0.3086583
vt 0.9829628 0.3705904
vt 0.9957224 0.4347369

vn 0 1 0

usemtl DefaultHDMaterial
f 3/3/1 2/2/1 1/1/1
f 4/4/1 2/2/1 3/3/1
f 5/5/1 2/2/1 4/4/1
f 6/6/1 2/2/1 5/5/1
f 7/7/1 2/2/1 6/6/1
f 8/8/1 2/2/1 7/7/1
f 9/9/1 2/2/1 8/8/1
f 10/10/1 2/2/1 9/9/1
f 11/11/1 2/2/1 10/10/1
f 12/12/1 2/2/1 11/11/1
f 13/13/1 2/2/1 12/12/1
f 14/14/1 2/2/1 13/13/1
f 15/15/1 2/2/1 14/14/1
f 16/16/1 2/2/1 15/15/1
f 17/17/1 2/2/1 16/16/1
f 18/18/1 2/2/1 17/17/1
f 19/19/1 2/2/1 18/18/1
f 20/20/1 2/2/1 19/19/1
f 21/21/1 2/2/1 20/20/1
f 22/22/1 2/2/1 21/21/1
f 23/23/1 2/2/1 22/22/1
f 24/24/1 2/2/1 23/23/1
f 25/25/1 2/2/1 24/24/1
f 26/26/1 2/2/1 25/25/1
f 27/27/1 2/2/1 26/26/1
f 28/28/1 2/2/1 27/27/1
f 29/29/1 2/2/1 28/28/1
f 30/30/1 2/2/1 29/29/1
f 31/31/1 2/2/1 30/30/1
f 32/32/1 2/2/1 31/31/1
f 34/34/1 2/2/1 33/33/1
f 35/35/1 2/2/1 34/34/1
f 36/36/1 2/2/1 35/35/1
f 37/37/1 2/2/1 36/36/1
f 38/38/1 2/2/1 37/37/1
f 1/1/1 2/2/1 38/38/1

